<svg xmlns="http://www.w3.org/2000/svg" width="13.597" height="15.72" viewBox="0 0 13.597 15.72">
  <g id="Group_559" data-name="Group 559" transform="translate(-1107 -171.447)">
    <path id="Path_139" data-name="Path 139" d="M12.039,57.077H1.558A1.694,1.694,0,0,1,0,55.276V44.469a1.694,1.694,0,0,1,1.558-1.8H12.039a1.694,1.694,0,0,1,1.558,1.8V55.276A1.694,1.694,0,0,1,12.039,57.077ZM1.558,43.65a.771.771,0,0,0-.708.819V55.276a.771.771,0,0,0,.708.819H12.039a.771.771,0,0,0,.708-.819V44.469a.771.771,0,0,0-.708-.819Zm0,0" transform="translate(1107 130.089)" fill="#4e4e4e"/>
    <path id="Path_140" data-name="Path 140" d="M13.172,171.65H.425a.5.5,0,0,1,0-.982H13.172a.5.5,0,0,1,0,.982Zm0,0" transform="translate(1107 6.019)" fill="#4e4e4e"/>
    <path id="Path_141" data-name="Path 141" d="M107.093,3.93a.462.462,0,0,1-.425-.491V.491a.429.429,0,1,1,.85,0V3.439A.462.462,0,0,1,107.093,3.93Zm0,0" transform="translate(1003.165 171.447)" fill="#4e4e4e"/>
    <path id="Path_142" data-name="Path 142" d="M373.757,3.93a.462.462,0,0,1-.425-.491V.491a.429.429,0,1,1,.85,0V3.439A.462.462,0,0,1,373.757,3.93Zm0,0" transform="translate(743.582 171.447)" fill="#4e4e4e"/>
  </g>
</svg>
