<svg xmlns="http://www.w3.org/2000/svg" width="27.326" height="38.804" viewBox="0 0 27.326 38.804">
  <g id="mouse" transform="translate(-75.726)">
    <g id="Group_287" data-name="Group 287" transform="translate(75.726)">
      <g id="Group_286" data-name="Group 286">
        <path id="Path_157" data-name="Path 157" d="M89.389,0A13.787,13.787,0,0,0,75.726,13.877V24.928a13.664,13.664,0,1,0,27.326.042V13.877A13.787,13.787,0,0,0,89.389,0Zm11.093,24.97A11.095,11.095,0,1,1,78.3,24.927V13.877a11.1,11.1,0,1,1,22.186,0Z" transform="translate(-75.726)"/>
      </g>
    </g>
    <g id="Group_289" data-name="Group 289" transform="translate(88.104 10.622)">
      <g id="Group_288" data-name="Group 288">
        <path id="Path_158" data-name="Path 158" d="M240.331,140.15a1.285,1.285,0,0,0-1.285,1.285v4.5a1.285,1.285,0,0,0,2.57,0v-4.5A1.285,1.285,0,0,0,240.331,140.15Z" transform="translate(-239.046 -140.15)"/>
      </g>
    </g>
  </g>
</svg>
