<svg xmlns="http://www.w3.org/2000/svg" width="36" height="36" viewBox="0 0 36 36">
  <path id="Subtraction_12" data-name="Subtraction 12" d="M18,36a18.132,18.132,0,0,1-3.628-.366,17.9,17.9,0,0,1-6.436-2.708,18.052,18.052,0,0,1-6.522-7.919A17.909,17.909,0,0,1,.366,21.628a18.175,18.175,0,0,1,0-7.255A17.9,17.9,0,0,1,3.074,7.936a18.053,18.053,0,0,1,7.919-6.522A17.909,17.909,0,0,1,14.372.366a18.175,18.175,0,0,1,7.255,0,17.9,17.9,0,0,1,6.436,2.708,18.053,18.053,0,0,1,6.521,7.919,17.909,17.909,0,0,1,1.049,3.379,18.175,18.175,0,0,1,0,7.255,17.9,17.9,0,0,1-2.708,6.436,18.053,18.053,0,0,1-7.919,6.521,17.909,17.909,0,0,1-3.379,1.049A18.132,18.132,0,0,1,18,36ZM14.255,9.3V26.819l10.51-8.758Z"/>
</svg>
